<!DOCTYPE svg PUBLIC "-//W3C//DTD SVG 1.1//EN" "http://www.w3.org/Graphics/SVG/1.1/DTD/svg11.dtd">
<!-- Uploaded to: SVG Repo, www.svgrepo.com, Transformed by: SVG Repo Mixer Tools -->
<svg fill="#ffa200" height="64px" width="64px" version="1.1" id="Layer_1" xmlns="http://www.w3.org/2000/svg" xmlns:xlink="http://www.w3.org/1999/xlink" viewBox="0 0 491.53 491.53" xml:space="preserve" transform="matrix(1, 0, 0, -1, 0, 0)" stroke="#ffa200" stroke-width="0.0049153">
<g id="SVGRepo_bgCarrier" stroke-width="0"/>
<g id="SVGRepo_tracerCarrier" stroke-linecap="round" stroke-linejoin="round" stroke="#CCCCCC" stroke-width="0.98306"/>
<g id="SVGRepo_iconCarrier"> <g> <g> <g> <path d="M484.83,210.13L259.55,5.33c-7.803-7.107-19.763-7.107-27.566,0L6.704,210.13c-4.26,3.871-6.697,9.38-6.697,15.155 v71.844l232.018-209.92c7.803-7.066,19.681-7.066,27.484,0l232.018,209.92v-71.844C491.527,219.51,489.09,214.001,484.83,210.13z "/> <path d="M0.005,352.374v28.611l231.956-211.784c7.782-7.107,19.681-7.148,27.505-0.102l232.059,208.855v-25.58l-245.76-222.351 L0.005,352.374z"/> <path d="M0.003,436.44v34.591c0,8.11,4.792,15.462,12.206,18.739c7.414,3.297,16.077,1.884,22.057-3.584L245.763,293.92 L457.26,486.186c3.85,3.502,8.786,5.325,13.783,5.325c2.806,0,5.632-0.553,8.274-1.741c7.434-3.277,12.206-10.629,12.206-18.739 v-37.97L245.865,211.959L0.003,436.44z"/> </g> </g> </g> </g>
</svg>